{
  "accessors": [
    {
      "bufferView": 2,
      "componentType": 5126,
      "count": 959,
      "max": [
        0.9121959805488586,
        0.9621409773826599,
        3.2491838932037354
      ],
      "min": [
        -0.9421799778938293,
        -0.9741029739379883,
        1.7439420223236084
      ],
      "type": "VEC3"
    },
    {
      "bufferView": 2,
      "byteOffset": 11508,
      "componentType": 5126,
      "count": 959,
      "max": [
        0.9983735084533691,
        0.9972474575042725,
        0.9991702437400818
      ],
      "min": [
        -0.9994818568229675,
        -0.9940170049667358,
        -1.0
      ],
      "type": "VEC3"
    },
    {
      "bufferView": 1,
      "componentType": 5126,
      "count": 959,
      "max": [
        1.0,
        1.0
      ],
      "min": [
        0.0,
        0.0
      ],
      "type": "VEC2"
    },
    {
      "bufferView": 0,
      "componentType": 5125,
      "count": 5220,
      "type": "SCALAR"
    },
    {
      "bufferView": 2,
      "byteOffset": 23016,
      "componentType": 5126,
      "count": 231,
      "max": [
        0.14444200694561005,
        0.10861600190401077,
        5.043567180633545
      ],
      "min": [
        -0.36743199825286865,
        -0.10861600190401077,
        2.9622280597686768
      ],
      "type": "VEC3"
    },
    {
      "bufferView": 2,
      "byteOffset": 25788,
      "componentType": 5126,
      "count": 231,
      "max": [
        0.9999687671661377,
        0.999983549118042,
        0.5862138867378235
      ],
      "min": [
        -0.9999146461486816,
        -0.9999762177467346,
        -0.6861569285392761
      ],
      "type": "VEC3"
    },
    {
      "bufferView": 1,
      "byteOffset": 7672,
      "componentType": 5126,
      "count": 231,
      "max": [
        0.625,
        0.656046986579895
      ],
      "min": [
        0.375,
        0.3125
      ],
      "type": "VEC2"
    },
    {
      "bufferView": 0,
      "byteOffset": 20880,
      "componentType": 5125,
      "count": 1200,
      "type": "SCALAR"
    },
    {
      "bufferView": 2,
      "byteOffset": 28560,
      "componentType": 5126,
      "count": 189,
      "max": [
        -0.30532100796699524,
        0.06922800093889236,
        5.198328971862793
      ],
      "min": [
        -0.5431529879570007,
        -0.06724900007247925,
        5.0070271492004395
      ],
      "type": "VEC3"
    },
    {
      "bufferView": 2,
      "byteOffset": 30828,
      "componentType": 5126,
      "count": 189,
      "max": [
        0.8290470242500305,
        0.9947042465209961,
        0.9969871044158936
      ],
      "min": [
        -0.9868484735488892,
        -0.9995175004005432,
        -0.9346291422843933
      ],
      "type": "VEC3"
    },
    {
      "bufferView": 1,
      "byteOffset": 9520,
      "componentType": 5126,
      "count": 189,
      "max": [
        0.65625,
        1.0
      ],
      "min": [
        0.34375,
        0.656046986579895
      ],
      "type": "VEC2"
    },
    {
      "bufferView": 0,
      "byteOffset": 25680,
      "componentType": 5125,
      "count": 900,
      "type": "SCALAR"
    }
  ],
  "asset": {
    "extras": {
      "author": "pizzaguyty (https://sketchfab.com/pizzaguyty)",
      "license": "CC-BY-4.0 (http://creativecommons.org/licenses/by/4.0/)",
      "source": "https://sketchfab.com/3d-models/cherry-free-download-8e076ba031bb4969930dc8e49d35668d",
      "title": "Cherry (Free Download)"
    },
    "generator": "Sketchfab-12.67.0",
    "version": "2.0"
  },
  "bufferViews": [
    {
      "buffer": 0,
      "byteLength": 29280,
      "name": "floatBufferViews",
      "target": 34963
    },
    {
      "buffer": 0,
      "byteLength": 11032,
      "byteOffset": 29280,
      "byteStride": 8,
      "name": "floatBufferViews",
      "target": 34962
    },
    {
      "buffer": 0,
      "byteLength": 33096,
      "byteOffset": 40312,
      "byteStride": 12,
      "name": "floatBufferViews",
      "target": 34962
    }
  ],
  "buffers": [
    {
      "byteLength": 73408,
      "uri": "scene.bin"
    }
  ],
  "materials": [
    {
      "doubleSided": true,
      "name": "blinn1SG",
      "pbrMetallicRoughness": {
        "baseColorFactor": [
          0.48,
          0.0,
          0.01,
          1.0
        ],
        "metallicFactor": 0.0,
        "roughnessFactor": 0.9604821355
      }
    },
    {
      "doubleSided": true,
      "name": "blinn2SG",
      "pbrMetallicRoughness": {
        "baseColorFactor": [
          0.53,
          0.55,
          0.01,
          1.0
        ],
        "metallicFactor": 0.0
      }
    },
    {
      "doubleSided": true,
      "name": "lambert2SG",
      "pbrMetallicRoughness": {
        "baseColorFactor": [
          0.39,
          0.22,
          0.02,
          1.0
        ],
        "metallicFactor": 0.0
      }
    }
  ],
  "meshes": [
    {
      "name": "Object_0",
      "primitives": [
        {
          "attributes": {
            "NORMAL": 1,
            "POSITION": 0,
            "TEXCOORD_0": 2
          },
          "indices": 3,
          "material": 0,
          "mode": 4
        }
      ]
    },
    {
      "name": "Object_1",
      "primitives": [
        {
          "attributes": {
            "NORMAL": 5,
            "POSITION": 4,
            "TEXCOORD_0": 6
          },
          "indices": 7,
          "material": 1,
          "mode": 4
        }
      ]
    },
    {
      "name": "Object_2",
      "primitives": [
        {
          "attributes": {
            "NORMAL": 9,
            "POSITION": 8,
            "TEXCOORD_0": 10
          },
          "indices": 11,
          "material": 2,
          "mode": 4
        }
      ]
    }
  ],
  "nodes": [
    {
      "children": [
        1
      ],
      "matrix": [
        1.0,
        0.0,
        0.0,
        0.0,
        0.0,
        2.220446049250313e-16,
        -1.0,
        0.0,
        0.0,
        1.0,
        2.220446049250313e-16,
        0.0,
        0.0,
        0.0,
        0.0,
        1.0
      ],
      "name": "Sketchfab_model"
    },
    {
      "children": [
        2,
        3,
        4
      ],
      "name": "cherry.obj.cleaner.materialmerger.gles"
    },
    {
      "mesh": 0,
      "name": "Object_2"
    },
    {
      "mesh": 1,
      "name": "Object_3"
    },
    {
      "mesh": 2,
      "name": "Object_4"
    }
  ],
  "scene": 0,
  "scenes": [
    {
      "name": "Sketchfab_Scene",
      "nodes": [
        0
      ]
    }
  ]
}
